<svg id="Group_18" data-name="Group 18" xmlns="http://www.w3.org/2000/svg" xmlns:xlink="http://www.w3.org/1999/xlink" width="19.754" height="19.747" viewBox="0 0 19.754 19.747">
  
  <g id="Group_17" data-name="Group 17" clip-path="url(#clip-path)">
    <path id="Path_22" data-name="Path 22" d="M9.913,155.7h9.1a.7.7,0,0,1,.7.972.674.674,0,0,1-.632.436c-.037,0-.073,0-.11,0H.811a.712.712,0,0,1-.792-.672.69.69,0,0,1,.7-.735c.632,0,1.264,0,1.9,0H9.913" transform="translate(-0.018 -146.527)" fill="#1a1818"/>
    <path id="Path_23" data-name="Path 23" d="M4,0C4.649,0,5.3,0,5.956,0A.7.7,0,0,1,6.7.7a.7.7,0,0,1-.748.715q-1.85,0-3.7,0a.735.735,0,0,0-.841.833c0,1.13,0,2.261,0,3.391a.706.706,0,0,1-.6.708.721.721,0,0,1-.786-.5.829.829,0,0,1-.025-.261c0-1.152,0-2.3,0-3.457A2.1,2.1,0,0,1,2.124,0C2.748,0,3.372,0,4,0" transform="translate(-0.004 -0.003)" fill="#1a1818"/>
    <path id="Path_24" data-name="Path 24" d="M224.265,0c.624,0,1.248,0,1.872,0a2.1,2.1,0,0,1,2.1,2.1c0,1.167,0,2.334,0,3.5a.705.705,0,1,1-1.408,0q0-1.674,0-3.347A.738.738,0,0,0,226,1.41c-1.248,0-2.5,0-3.744,0a.708.708,0,0,1-.707-.6.716.716,0,0,1,.5-.785A.839.839,0,0,1,222.3,0h1.96" transform="translate(-208.494 0)" fill="#1a1818"/>
    <path id="Path_25" data-name="Path 25" d="M3.979,233.92c-.617,0-1.233,0-1.85,0A2.1,2.1,0,0,1,0,231.8q0-1.74,0-3.479a.7.7,0,0,1,.713-.749.7.7,0,0,1,.7.745q0,1.663,0,3.325c0,.605.264.866.876.866q1.85,0,3.7,0a.707.707,0,0,1,.71.595.718.718,0,0,1-.5.787.822.822,0,0,1-.261.026H3.979" transform="translate(0 -214.174)" fill="#1a1818"/>
    <path id="Path_26" data-name="Path 26" d="M224.3,233.864h-1.938a.707.707,0,1,1-.01-1.408h3.678a.74.74,0,0,0,.847-.85c0-1.123,0-2.246,0-3.369a.7.7,0,0,1,.591-.713.716.716,0,0,1,.789.491.728.728,0,0,1,.028.239c0,1.174,0,2.349,0,3.523a2.1,2.1,0,0,1-2.09,2.087c-.631,0-1.263,0-1.894,0" transform="translate(-208.542 -214.119)" fill="#1a1818"/>
  </g>
</svg>
